<svg xmlns="http://www.w3.org/2000/svg" viewBox="0 0 1000 1000" width="100%" height="100%" style="background-color: #0f172a; font-family: -apple-system, BlinkMacSystemFont, 'Segoe UI', Roboto, Helvetica, Arial, sans-serif;">
  <defs>
    <!-- Filters for Depth and Glow -->
    <filter id="softShadow" x="-10%" y="-10%" width="120%" height="120%">
      <feDropShadow dx="0" dy="6" stdDeviation="6" flood-color="#000000" flood-opacity="0.35" />
    </filter>
    <filter id="cardGlow" x="-20%" y="-20%" width="140%" height="140%">
      <feDropShadow dx="0" dy="0" stdDeviation="8" flood-color="#0284c7" flood-opacity="0.5" />
    </filter>
    <filter id="textShadow" x="-10%" y="-10%" width="120%" height="120%">
      <feDropShadow dx="0" dy="2" stdDeviation="3" flood-color="#000000" flood-opacity="0.3" />
    </filter>

    <!-- Gradients -->
    <linearGradient id="warmSky" x1="0" y1="0" x2="0" y2="1">
      <stop offset="0%" stop-color="#fed7aa" />
      <stop offset="30%" stop-color="#ffedd5" />
      <stop offset="65%" stop-color="#bae6fd" />
      <stop offset="100%" stop-color="#e0f2fe" />
    </linearGradient>

    <linearGradient id="sunGlow" x1="0" y1="0" x2="1" y2="1">
      <stop offset="0%" stop-color="#fef08a" stop-opacity="0.8" />
      <stop offset="100%" stop-color="#fb923c" stop-opacity="0" />
    </linearGradient>

    <linearGradient id="hudGlass" x1="0" y1="0" x2="1" y2="1">
      <stop offset="0%" stop-color="#e0f2fe" stop-opacity="0.85" />
      <stop offset="100%" stop-color="#bae6fd" stop-opacity="0.7" />
    </linearGradient>

    <linearGradient id="deskWoodGrad" x1="0" y1="0" x2="0" y2="1">
      <stop offset="0%" stop-color="#b45309" />
      <stop offset="20%" stop-color="#d97706" />
      <stop offset="50%" stop-color="#92400e" />
      <stop offset="100%" stop-color="#78350f" />
    </linearGradient>

    <linearGradient id="navySuit" x1="0" y1="0" x2="1" y2="1">
      <stop offset="0%" stop-color="#1e3a8a" />
      <stop offset="60%" stop-color="#172554" />
      <stop offset="100%" stop-color="#0f172a" />
    </linearGradient>

    <linearGradient id="tajMarble" x1="0" y1="0" x2="0" y2="1">
      <stop offset="0%" stop-color="#ffffff" />
      <stop offset="70%" stop-color="#f8fafc" />
      <stop offset="100%" stop-color="#cbd5e1" />
    </linearGradient>
  </defs>

  <!-- 1. PENTHOUSE WINDOW VIEW & BACKGROUND SKY -->
  <rect x="0" y="0" width="1000" height="720" fill="url(#warmSky)" />
  <circle cx="500" cy="360" r="280" fill="url(#sunGlow)" />

  <!-- 2. TAJ MAHAL MONUMENT & GARDEN POOL -->
  <g id="taj-monument" transform="translate(320, 240)">
    <!-- Base Platform -->
    <rect x="-80" y="195" width="520" height="22" rx="2" fill="#f8fafc" stroke="#94a3b8" stroke-width="1.5" />
    <rect x="-100" y="215" width="560" height="15" fill="#e2e8f0" />
    
    <!-- Water Reflection Pool -->
    <polygon points="110,230 250,230 235,320 125,320" fill="#38bdf8" opacity="0.45" />
    <line x1="180" y1="230" x2="180" y2="320" stroke="#bae6fd" stroke-width="2" />

    <!-- Main Tomb Structure -->
    <rect x="70" y="90" width="220" height="110" rx="3" fill="url(#tajMarble)" stroke="#94a3b8" stroke-width="1.5" />
    
    <!-- Central Grand Portal (Iwan) -->
    <path d="M140 200 L140 135 Q180 100 220 135 L220 200 Z" fill="#334155" opacity="0.5" />
    <path d="M150 200 L150 145 Q180 115 210 145 L210 200 Z" fill="#0f172a" opacity="0.75" />

    <!-- Side Arches -->
    <path d="M85 140 L85 110 Q105 95 125 110 L125 140 Z" fill="#64748b" opacity="0.4" />
    <path d="M85 190 L85 155 Q105 140 125 155 L125 190 Z" fill="#64748b" opacity="0.4" />
    <path d="M235 140 L235 110 Q255 95 275 110 L275 140 Z" fill="#64748b" opacity="0.4" />
    <path d="M235 190 L235 155 Q255 140 275 155 L275 190 Z" fill="#64748b" opacity="0.4" />

    <!-- Main Central Onion Dome -->
    <path d="M125 90 C125 10 235 10 235 90 Z" fill="#ffffff" stroke="#cbd5e1" stroke-width="2" />
    <path d="M180 15 L180 -12 M174 -6 L186 -6" stroke="#94a3b8" stroke-width="2.5" />

    <!-- Side Kiosks (Chhatris) -->
    <path d="M90 90 C90 60 120 60 120 90 Z" fill="#f8fafc" stroke="#cbd5e1" />
    <path d="M240 90 C240 60 270 60 270 90 Z" fill="#f8fafc" stroke="#cbd5e1" />

    <!-- Minarets -->
    <!-- Far Left -->
    <rect x="-65" y="45" width="16" height="150" fill="#ffffff" stroke="#94a3b8" stroke-width="1" />
    <path d="M-68 45 C-68 25 -46 25 -46 45 Z" fill="#ffffff" />
    <line x1="-57" y1="25" x2="-57" y2="10" stroke="#94a3b8" stroke-width="2" />
    <!-- Inner Left -->
    <rect x="25" y="65" width="12" height="130" fill="#f8fafc" stroke="#cbd5e1" stroke-width="1" />
    <path d="M22 65 C22 48 40 48 40 65 Z" fill="#ffffff" />
    <!-- Inner Right -->
    <rect x="323" y="65" width="12" height="130" fill="#f8fafc" stroke="#cbd5e1" stroke-width="1" />
    <path d="M320 65 C320 48 338 48 338 65 Z" fill="#ffffff" />
    <!-- Far Right -->
    <rect x="410" y="45" width="16" height="150" fill="#ffffff" stroke="#94a3b8" stroke-width="1" />
    <path d="M407 45 C407 25 429 25 429 45 Z" fill="#ffffff" />
    <line x1="418" y1="25" x2="418" y2="10" stroke="#94a3b8" stroke-width="2" />
  </g>

  <!-- Window Frame Mullions -->
  <rect x="0" y="0" width="1000" height="16" fill="#334155" />
  <line x1="120" y1="0" x2="120" y2="720" stroke="#334155" stroke-width="10" />
  <line x1="330" y1="0" x2="330" y2="720" stroke="#334155" stroke-width="10" />
  <line x1="670" y1="0" x2="670" y2="720" stroke="#334155" stroke-width="10" />
  <line x1="880" y1="0" x2="880" y2="720" stroke="#334155" stroke-width="10" />

  <!-- 3. TOP BOLD TITLE CARD -->
  <g id="top-title" transform="translate(150, 16)" filter="url(#softShadow)">
    <rect x="0" y="0" width="700" height="215" rx="16" fill="#ffffff" fill-opacity="0.95" stroke="#38bdf8" stroke-width="3.5" />
    <text x="350" y="62" font-size="52" font-weight="900" fill="#0f172a" text-anchor="middle" letter-spacing="-1">A SERIOUS SELLER</text>
    <text x="350" y="125" font-size="52" font-weight="900" fill="#0f172a" text-anchor="middle" letter-spacing="-1">DOES NOT NEGOTIATE</text>
    <text x="350" y="190" font-size="52" font-weight="900" fill="#0f172a" text-anchor="middle" letter-spacing="-1">AGAINST THEMSELVES</text>
  </g>

  <!-- 4. FLOATING HOLOGRAPHIC HUD CARDS -->
  <!-- Left HUD: Asset Realities -->
  <g id="hud-asset" transform="translate(25, 235)" filter="url(#cardGlow)">
    <rect x="0" y="0" width="280" height="200" rx="12" fill="url(#hudGlass)" stroke="#0284c7" stroke-width="2" />
    <text x="140" y="32" font-size="20" font-weight="900" fill="#0369a1" text-anchor="middle">Asset Realities</text>
    
    <text x="16" y="62" font-size="13" font-weight="700" fill="#0f172a">Procedures reflect logistics chains</text>
    <text x="16" y="82" font-size="13" font-weight="700" fill="#0f172a">(tank storage, charter parties).</text>
    <text x="16" y="102" font-size="13" font-weight="700" fill="#0f172a">CIF exists for these checkpoints.</text>
    
    <text x="16" y="132" font-size="13" font-weight="800" fill="#0c4a6e">A serious seller maintains</text>
    <text x="16" y="152" font-size="13" font-weight="800" fill="#0c4a6e">established frameworks, not for</text>
    <text x="16" y="172" font-size="13" font-weight="800" fill="#0c4a6e">every new inquiry.</text>
  </g>

  <!-- Right HUD: Risk Control -->
  <g id="hud-risk" transform="translate(695, 235)" filter="url(#cardGlow)">
    <rect x="0" y="0" width="280" height="200" rx="12" fill="url(#hudGlass)" stroke="#0284c7" stroke-width="2" />
    <text x="140" y="32" font-size="20" font-weight="900" fill="#0369a1" text-anchor="middle">Risk Control</text>
    
    <text x="16" y="62" font-size="12.5" font-weight="700" fill="#0f172a">Experienced sellers know procedures</text>
    <text x="16" y="82" font-size="12.5" font-weight="700" fill="#0f172a">protect all parties from unmitigated</text>
    <text x="16" y="102" font-size="12.5" font-weight="700" fill="#0f172a">risk. Procedural rewriting before</text>
    
    <text x="16" y="132" font-size="13" font-weight="800" fill="#b91c1c">qualification indicates a lack of</text>
    <text x="16" y="152" font-size="13" font-weight="800" fill="#b91c1c">capability or understanding.</text>
  </g>

  <!-- 5. DESKTOP TRADING TERMINAL -->
  <g id="trade-heaven-screen" transform="translate(355, 435)" filter="url(#softShadow)">
    <rect x="0" y="0" width="290" height="160" rx="10" fill="#0f172a" stroke="#0284c7" stroke-width="3" />
    <rect x="0" y="0" width="290" height="28" rx="8" fill="#1e293b" />
    <text x="145" y="20" font-size="14" font-weight="900" fill="#38bdf8" text-anchor="middle" letter-spacing="1">Trade Heaven</text>
    
    <text x="50" y="55" font-size="11.5" font-weight="700" fill="#f8fafc">Connect with</text>
    <text x="50" y="72" font-size="11.5" font-weight="700" fill="#f8fafc">Verified Buyers</text>

    <!-- Verified Handshake Badge -->
    <circle cx="145" cy="62" r="16" fill="#0369a1" />
    <path d="M137 62 L143 68 L155 54" stroke="#ffffff" stroke-width="3" fill="none" stroke-linecap="round" />

    <text x="178" y="52" font-size="10.5" font-weight="800" fill="#4ade80">• Verified Listing</text>
    <text x="178" y="68" font-size="10.5" font-weight="700" fill="#93c5fd">• CIF Fuel Allocation</text>
    <text x="178" y="84" font-size="10.5" font-weight="700" fill="#94a3b8">• Available Now</text>

    <!-- Candlestick Line Graph -->
    <rect x="15" y="98" width="260" height="48" rx="4" fill="#020617" />
    <path d="M25 135 L65 118 L95 125 L135 108 L175 116 L220 102 L265 110" stroke="#38bdf8" stroke-width="2.5" fill="none" />
    
    <!-- Monitor Stand -->
    <rect x="137" y="160" width="16" height="28" fill="#334155" />
    <rect x="105" y="180" width="80" height="8" rx="3" fill="#475569" />
  </g>

  <!-- 6. SENIOR TRADER (LEFT) -->
  <g id="senior-trader-character" transform="translate(0, 420)">
    <!-- Leather Executive Highback Chair -->
    <path d="M80 80 C40 10 200 -10 260 40 C300 80 290 240 260 300 L100 300 Z" fill="#020617" stroke="#1e293b" stroke-width="6" />
    
    <!-- Hair & Head -->
    <path d="M180 50 C160 5 215 -15 255 10 C280 28 265 70 245 75 Z" fill="#78350f" />
    <path d="M190 50 C190 90 250 90 260 50 Z" fill="#fed7aa" />
    <circle cx="182" cy="65" r="9" fill="#fed7aa" stroke="#fbcfe8" />

    <!-- Sunglasses -->
    <polygon points="195,50 225,50 220,68 200,68" fill="#020617" stroke="#0f172a" stroke-width="2" />
    <polygon points="230,50 260,50 255,68 235,68" fill="#020617" stroke="#0f172a" stroke-width="2" />
    <line x1="225" y1="56" x2="230" y2="56" stroke="#0284c7" stroke-width="3" />
    <line x1="200" y1="53" x2="215" y2="64" stroke="#ffffff" stroke-width="2" opacity="0.8" />
    <line x1="235" y1="53" x2="250" y2="64" stroke="#ffffff" stroke-width="2" opacity="0.8" />

    <!-- Smug Smile -->
    <path d="M215 76 Q230 86 248 74" stroke="#7c2d12" stroke-width="3.5" fill="none" stroke-linecap="round" />

    <!-- Hands Relaxed Behind Head -->
    <path d="M140 115 C145 65 180 45 190 60" stroke="#fed7aa" stroke-width="20" stroke-linecap="round" fill="none" />
    <path d="M295 115 C285 65 255 45 245 60" stroke="#fed7aa" stroke-width="20" stroke-linecap="round" fill="none" />

    <!-- White Shirt Collar -->
    <polygon points="205,95 235,135 265,95 250,90 220,90" fill="#ffffff" />
    
    <!-- Navy Suit -->
    <path d="M145 105 L205 95 L220 155 L165 270 L80 270 Z" fill="url(#navySuit)" />
    <path d="M290 105 L230 95 L215 155 L275 270 L350 270 Z" fill="url(#navySuit)" />

    <!-- Suit Arms on Chair -->
    <path d="M115 135 C105 175 125 225 155 255" stroke="#1e3a8a" stroke-width="24" stroke-linecap="round" fill="none" />
    <path d="M315 135 C325 175 305 225 275 255" stroke="#1e3a8a" stroke-width="24" stroke-linecap="round" fill="none" />

    <!-- Speech Bubble: "CIF works better." -->
    <g id="speech-bubble" transform="translate(95, 215)" filter="url(#softShadow)">
      <path d="M10 0 L145 0 C155 0 160 10 160 20 L160 55 C160 65 155 75 145 75 L50 75 L30 95 L35 75 L10 75 C0 75 -5 65 -5 55 L-5 20 C-5 10 0 0 10 0 Z" fill="#ffffff" stroke="#0284c7" stroke-width="3" />
      <text x="77" y="32" font-size="20" font-weight="900" fill="#0f172a" text-anchor="middle">CIF works</text>
      <text x="77" y="58" font-size="20" font-weight="900" fill="#0f172a" text-anchor="middle">better.</text>
    </g>
  </g>

  <!-- 7. JUNIOR BROKER WITH FLIPCHART (RIGHT) -->
  <g id="junior-broker-character" transform="translate(540, 375)">
    <!-- Broker Figure -->
    <g>
      <!-- Hair & Head -->
      <path d="M115 60 C80 10 170 -10 190 40 C200 65 190 90 175 100 Z" fill="#78350f" />
      <!-- Face -->
      <path d="M130 55 C130 115 185 115 185 55 Z" fill="#fed7aa" />
      
      <!-- Big Panicking Eyes -->
      <circle cx="145" cy="65" r="15" fill="#ffffff" stroke="#000000" stroke-width="2.5" />
      <circle cx="146" cy="65" r="5.5" fill="#000000" />
      <circle cx="173" cy="65" r="15" fill="#ffffff" stroke="#000000" stroke-width="2.5" />
      <circle cx="174" cy="65" r="5.5" fill="#000000" />

      <!-- Curved Worried Eyebrows -->
      <path d="M135 45 Q145 36 155 46" stroke="#451a03" stroke-width="3.5" fill="none" stroke-linecap="round" />
      <path d="M165 46 Q175 36 185 45" stroke="#451a03" stroke-width="3.5" fill="none" stroke-linecap="round" />

      <!-- Sweating Face Drops -->
      <path d="M198 50 Q208 40 203 35 Q198 40 198 50 Z" fill="#38bdf8" />
      <path d="M116 60 Q106 50 110 45 Q116 50 116 60 Z" fill="#38bdf8" />
      <path d="M188 85 Q196 75 192 70 Q188 75 188 85 Z" fill="#38bdf8" />

      <!-- Red Distressed Nose & Gasping Mouth -->
      <ellipse cx="160" cy="75" rx="8" ry="6" fill="#f87171" />
      <path d="M148 90 Q160 110 172 90 Z" fill="#7f1d1d" stroke="#000000" stroke-width="2" />

      <!-- White Shirt -->
      <path d="M125 110 L190 110 L210 270 L110 270 Z" fill="#f8fafc" stroke="#cbd5e1" stroke-width="2" />
      
      <!-- Loosened Red Tie -->
      <polygon points="152,110 168,110 180,210 160,235 140,210" fill="#dc2626" />
      <line x1="160" y1="110" x2="160" y2="230" stroke="#991b1b" stroke-width="2.5" />

      <!-- Stretched Arm with Red Marker -->
      <path d="M185 140 L240 160 L275 165" stroke="#fed7aa" stroke-width="18" stroke-linecap="round" fill="none" />
      <rect x="270" y="155" width="24" height="12" rx="3" fill="#ef4444" transform="rotate(20 270 155)" />
      <polygon points="292,166 302,169 294,175" fill="#000000" />
    </g>

    <!-- Whiteboard Flipchart: FOB PROCEDURE -->
    <g id="flipchart" transform="translate(230, 15)" filter="url(#softShadow)">
      <line x1="30" y1="360" x2="60" y2="50" stroke="#475569" stroke-width="8" />
      <line x1="190" y1="360" x2="160" y2="50" stroke="#475569" stroke-width="8" />

      <!-- Board -->
      <rect x="15" y="30" width="200" height="295" rx="10" fill="#ffffff" stroke="#94a3b8" stroke-width="4" />
      <rect x="15" y="30" width="200" height="35" rx="6" fill="#cbd5e1" />
      <circle cx="115" cy="48" r="5" fill="#475569" />

      <text x="115" y="96" font-size="38" font-weight="950" fill="#0284c7" text-anchor="middle" letter-spacing="1">FOB</text>
      <text x="115" y="128" font-size="20" font-weight="900" fill="#dc2626" text-anchor="middle">PROCEDURE</text>
      <line x1="35" y1="138" x2="195" y2="138" stroke="#ef4444" stroke-width="2.5" />

      <text x="115" y="172" font-size="16" font-weight="900" fill="#0f172a" text-anchor="middle">Let's change</text>
      <text x="115" y="195" font-size="16" font-weight="900" fill="#0f172a" text-anchor="middle">everything!</text>

      <!-- Crossed out Diagram -->
      <rect x="40" y="215" width="150" height="75" fill="none" stroke="#ef4444" stroke-width="2.5" stroke-dasharray="6,4" />
      <line x1="45" y1="220" x2="185" y2="285" stroke="#ef4444" stroke-width="7" stroke-linecap="round" />
      <line x1="185" y1="220" x2="45" y2="285" stroke="#ef4444" stroke-width="7" stroke-linecap="round" />
    </g>
  </g>

  <!-- 8. FOREGROUND MAHOGANY DESK -->
  <g id="desk-section" transform="translate(0, 680)">
    <!-- Wooden Table Top -->
    <polygon points="0,40 1000,40 1000,320 0,320" fill="url(#deskWoodGrad)" stroke="#451a03" stroke-width="6" />
    <line x1="0" y1="46" x2="1000" y2="46" stroke="#fde047" stroke-width="2" opacity="0.3" />

    <!-- Left: Ceramic Blue Coffee Mug "CIF RULES" with Steam -->
    <g id="cif-mug" transform="translate(15, -45)" filter="url(#softShadow)">
      <!-- Steam Curls -->
      <path d="M50 -10 Q60 -25 50 -40 Q40 -55 55 -70" stroke="#cbd5e1" stroke-width="3.5" fill="none" stroke-linecap="round" opacity="0.8" />
      <path d="M80 -10 Q90 -25 80 -40 Q70 -55 85 -70" stroke="#cbd5e1" stroke-width="3.5" fill="none" stroke-linecap="round" opacity="0.8" />

      <!-- Cup Body -->
      <rect x="25" y="0" width="95" height="110" rx="10" fill="#0284c7" stroke="#0369a1" stroke-width="4" />
      <!-- Handle -->
      <path d="M120 20 C155 20 155 85 120 85" stroke="#0284c7" stroke-width="14" fill="none" stroke-linecap="round" />
      
      <text x="72" y="48" font-size="28" font-weight="950" fill="#ffffff" text-anchor="middle">CIF</text>
      <text x="72" y="80" font-size="20" font-weight="900" fill="#ffffff" text-anchor="middle">RULES</text>
    </g>

    <!-- Center: Executive White Binder "CIF PROCEDURE" with Green Checkmark -->
    <g id="cif-binder-item" transform="translate(200, -65)" filter="url(#softShadow)">
      <rect x="15" y="30" width="460" height="150" rx="14" fill="#e2e8f0" />
      <rect x="0" y="0" width="480" height="165" rx="14" fill="#ffffff" stroke="#94a3b8" stroke-width="4" />
      
      <!-- Binder Metal Rings -->
      <g fill="#475569" stroke="#0f172a" stroke-width="2">
        <rect x="35" y="-12" width="16" height="28" rx="8" />
        <rect x="95" y="-12" width="16" height="28" rx="8" />
        <rect x="155" y="-12" width="16" height="28" rx="8" />
        <rect x="375" y="-12" width="16" height="28" rx="8" />
        <rect x="435" y="-12" width="16" height="28" rx="8" />
      </g>

      <text x="240" y="65" font-size="52" font-weight="950" fill="#0f172a" text-anchor="middle" letter-spacing="-1">CIF</text>
      <text x="240" y="105" font-size="34" font-weight="900" fill="#0f172a" text-anchor="middle" letter-spacing="1">PROCEDURE</text>

      <!-- Bold Green Checkmark -->
      <path d="M205 125 L230 150 L275 110" stroke="#22c55e" stroke-width="12" stroke-linecap="round" stroke-linejoin="round" fill="none" />
    </g>

    <!-- Trader's Feet Kicked Up on Desk -->
    <g id="trader-leather-shoes" transform="translate(560, -90)" filter="url(#softShadow)">
      <!-- Left Shoe -->
      <path d="M40 90 C20 40 50 10 90 25 C120 40 130 90 120 120 L50 120 Z" fill="#451a03" stroke="#1c1917" stroke-width="3.5" />
      <ellipse cx="80" cy="45" rx="35" ry="18" fill="#1c1917" />
      <!-- Right Shoe -->
      <path d="M120 100 C100 50 130 20 170 35 C200 50 210 100 200 130 L130 130 Z" fill="#451a03" stroke="#1c1917" stroke-width="3.5" />
      <ellipse cx="160" cy="55" rx="35" ry="18" fill="#1c1917" />
      
      <!-- Trousers -->
      <rect x="25" y="105" width="40" height="28" rx="4" fill="#0f172a" />
      <rect x="105" y="115" width="40" height="28" rx="4" fill="#0f172a" />
    </g>

    <!-- Right: Crumpled Draft Paper Balls -->
    <g id="crumpled-balls" transform="translate(730, 20)">
      <g transform="translate(20, 0)" filter="url(#softShadow)">
        <path d="M20 25 Q35 5 50 20 Q65 10 60 35 Q75 50 50 55 Q35 65 20 45 Q10 35 20 25 Z" fill="#f8fafc" stroke="#94a3b8" stroke-width="2.5" />
      </g>
      <g transform="translate(100, 45)" filter="url(#softShadow)">
        <path d="M15 20 Q30 5 45 15 Q60 10 55 30 Q70 45 45 50 Q30 60 15 40 Q5 30 15 20 Z" fill="#f8fafc" stroke="#94a3b8" stroke-width="2.5" />
      </g>
      <g transform="translate(145, -10)" filter="url(#softShadow)">
        <path d="M20 25 Q35 5 50 20 Q65 10 60 35 Q75 50 50 55 Q35 65 20 45 Q10 35 20 25 Z" fill="#f8fafc" stroke="#94a3b8" stroke-width="2.5" />
      </g>
    </g>
  </g>
</svg>
